<?xml version="1.0" standalone="no"?>
<!DOCTYPE svg PUBLIC "-//W3C//DTD SVG 20010904//EN"
 "http://www.w3.org/TR/2001/REC-SVG-20010904/DTD/svg10.dtd">
<svg version="1.0" xmlns="http://www.w3.org/2000/svg"
 width="700.000000pt" height="700.000000pt" viewBox="0 0 700.000000 700.000000"
 preserveAspectRatio="xMidYMid meet">
<metadata>
Created by potrace 1.11, written by Peter Selinger 2001-2013
</metadata>
<g transform="translate(0.000000,700.000000) scale(0.100000,-0.100000)"
fill="#000000" stroke="none">
<path d="M0 6249 l0 -749 750 0 750 0 -2 748 -3 747 -747 2 -748 1 0 -749z"/>
<path d="M2006 6992 c-3 -5 -5 -453 -5 -997 0 -543 -2 -989 -4 -992 -3 -2
-453 -4 -1001 -4 l-996 0 0 -999 0 -1000 2000 0 1999 0 1 2000 0 2000 -994 0
c-547 0 -997 -4 -1000 -8z"/>
<path d="M4500 4750 l0 -2250 -2250 0 -2250 0 0 -1250 0 -1250 3500 0 3500 0
0 3500 0 3500 -1250 0 -1250 0 0 -2250z"/>
</g>
</svg>
